<svg xmlns="http://www.w3.org/2000/svg" width="760" height="294" viewBox="0 0 760 294" role="img" aria-label="Benchmark ns/op by operation">
<style>text{font-family:-apple-system,BlinkMacSystemFont,"Segoe UI",Roboto,Helvetica,Arial,sans-serif}.title{font-size:15px;font-weight:600;fill:#1f2328}.caption{font-size:12px;fill:#57606a}.label{font-size:12px;fill:#1f2328}.value{font-size:12px;fill:#57606a}</style>
<rect width="760" height="294" fill="#ffffff"/>
<text class="title" x="16" y="30">Benchmark — lower is faster (ns/op, n=1000)</text>
<text class="caption" x="16" y="50">Reference — Framework Desktop</text>
<text class="label" x="236" y="95" text-anchor="end">Dict — Hash.Get</text>
<rect x="246" y="81" width="4.02" height="20" rx="3" fill="#4c78a8"/>
<text class="value" x="256.02" y="95">4.67</text>
<text class="label" x="236" y="129" text-anchor="end">Dict — ConcurrentHash.Get</text>
<rect x="246" y="115" width="11.77" height="20" rx="3" fill="#72b7b2"/>
<text class="value" x="263.77" y="129">13.7</text>
<text class="label" x="236" y="163" text-anchor="end">Dict — ConcurrentHashRW.Get</text>
<rect x="246" y="149" width="11.37" height="20" rx="3" fill="#54a24b"/>
<text class="value" x="263.37" y="163">13.2</text>
<text class="label" x="236" y="197" text-anchor="end">Dict — Tree.Get</text>
<rect x="246" y="183" width="418" height="20" rx="3" fill="#eeca3b"/>
<text class="value" x="670" y="197">485</text>
<text class="label" x="236" y="231" text-anchor="end">List — Array.Get</text>
<rect x="246" y="217" width="1.27" height="20" rx="3" fill="#e45756"/>
<text class="value" x="253.27" y="231">1.48</text>
<text class="label" x="236" y="265" text-anchor="end">Set — Hash.Contains</text>
<rect x="246" y="251" width="4.5" height="20" rx="3" fill="#b279a2"/>
<text class="value" x="256.5" y="265">5.23</text>
</svg>
