<svg xmlns="http://www.w3.org/2000/svg" width="760" height="276" viewBox="0 0 760 276" role="img" aria-label="Benchmark ns/op by operation">
<style>text{font-family:-apple-system,BlinkMacSystemFont,"Segoe UI",Roboto,Helvetica,Arial,sans-serif}.title{font-size:15px;font-weight:600;fill:#1f2328}.label{font-size:12px;fill:#1f2328}.value{font-size:12px;fill:#57606a}</style>
<rect width="760" height="276" fill="#ffffff"/>
<text class="title" x="16" y="32">Benchmark — lower is faster (ns/op, n=1000)</text>
<text class="label" x="236" y="77" text-anchor="end">Dict — Hash.Get</text>
<rect x="246" y="63" width="4.02" height="20" rx="3" fill="#4c78a8"/>
<text class="value" x="256.02" y="77">4.67</text>
<text class="label" x="236" y="111" text-anchor="end">Dict — ConcurrentHash.Get</text>
<rect x="246" y="97" width="11.77" height="20" rx="3" fill="#72b7b2"/>
<text class="value" x="263.77" y="111">13.7</text>
<text class="label" x="236" y="145" text-anchor="end">Dict — ConcurrentHashRW.Get</text>
<rect x="246" y="131" width="11.37" height="20" rx="3" fill="#54a24b"/>
<text class="value" x="263.37" y="145">13.2</text>
<text class="label" x="236" y="179" text-anchor="end">Dict — Tree.Get</text>
<rect x="246" y="165" width="418" height="20" rx="3" fill="#eeca3b"/>
<text class="value" x="670" y="179">485</text>
<text class="label" x="236" y="213" text-anchor="end">List — Array.Get</text>
<rect x="246" y="199" width="1.27" height="20" rx="3" fill="#e45756"/>
<text class="value" x="253.27" y="213">1.48</text>
<text class="label" x="236" y="247" text-anchor="end">Set — Hash.Contains</text>
<rect x="246" y="233" width="4.5" height="20" rx="3" fill="#b279a2"/>
<text class="value" x="256.5" y="247">5.23</text>
</svg>
